<svg version="1.0" xmlns="http://www.w3.org/2000/svg"
 width="1080.000000pt" height="1079.000000pt" viewBox="0 0 1080.000000 1079.000000"
 preserveAspectRatio="xMidYMid meet">
<path d="M5235 10470 c-11 -4 -33 -21 -48 -37 -28 -30 -28 -30 -25 -154 3
-146 -10 -135 156 -124 l102 7 0 46 c0 26 -5 65 -11 86 -15 52 -57 147 -77
169 -16 18 -63 22 -97 7z"/>
<path d="M4695 10405 c-48 -17 -110 -83 -119 -126 -10 -52 -7 -157 5 -165 13
-8 311 14 349 26 20 6 24 13 22 36 -4 42 -49 174 -72 212 -19 31 -22 32 -82
32 -35 -1 -81 -7 -103 -15z"/>
<path d="M4204 10386 c-71 -31 -134 -167 -134 -289 l0 -57 43 0 c46 0 184 32
219 51 19 10 20 17 15 93 -8 113 -54 217 -96 216 -9 -1 -30 -7 -47 -14z"/>
<path d="M5911 10383 c-73 -36 -183 -178 -168 -218 5 -11 76 -25 251 -47 l89
-12 23 28 c19 21 24 39 24 82 0 79 -18 141 -48 164 -32 25 -122 27 -171 3z"/>
<path d="M6417 10230 c-75 -80 -89 -103 -85 -142 4 -44 51 -68 130 -68 57 0
58 0 74 38 25 55 30 161 10 200 -27 52 -62 44 -129 -28z"/>
<path d="M3539 10161 c-38 -38 -39 -40 -38 -107 0 -42 9 -94 22 -134 20 -58
25 -65 47 -63 36 4 190 82 197 100 7 17 -13 62 -69 156 -61 101 -96 112 -159
48z"/>
<path d="M6894 10149 c-46 -13 -118 -81 -149 -141 -34 -64 -38 -61 142 -124
148 -52 153 -52 188 6 14 24 20 58 23 119 3 85 3 86 -28 119 -28 29 -36 32
-88 31 -31 0 -71 -5 -88 -10z"/>
<path d="M3114 9968 c-60 -55 -74 -85 -74 -154 0 -61 20 -115 64 -169 l24 -30
77 40 c97 51 167 109 158 133 -15 39 -107 178 -131 199 -39 33 -66 29 -118
-19z"/>
<path d="M7424 9981 c-60 -27 -119 -84 -148 -144 -33 -64 -32 -80 0 -106 45
-35 191 -104 208 -98 34 13 66 110 81 248 6 50 4 58 -20 87 -31 37 -60 40
-121 13z"/>
<path d="M4730 9950 c-30 -4 -84 -8 -118 -9 -75 -1 -423 -69 -572 -112 -167
-48 -196 -59 -430 -172 -333 -161 -616 -365 -970 -702 -85 -82 -198 -182 -250
-224 -130 -103 -391 -333 -515 -452 -86 -83 -115 -121 -188 -239 -48 -77 -87
-142 -87 -145 0 -2 -24 -45 -54 -94 -30 -49 -85 -142 -122 -208 -289 -509
-317 -572 -373 -848 -18 -89 -41 -172 -58 -209 -32 -66 -49 -119 -88 -266 -14
-52 -34 -126 -45 -165 -47 -165 -93 -468 -77 -509 6 -14 20 -16 104 -14 l98 3
11 90 c20 151 89 486 134 640 4 17 23 84 40 150 61 227 231 799 257 865 87
219 211 409 368 565 93 92 162 151 325 273 175 131 200 152 358 307 119 115
172 175 286 320 17 22 112 123 211 223 204 208 252 244 505 375 291 151 529
244 710 278 441 83 677 104 1085 95 381 -8 539 -23 765 -76 531 -123 618 -153
1033 -361 406 -203 627 -341 912 -568 39 -31 72 -58 75 -61 8 -8 64 -53 96
-77 327 -242 402 -322 776 -823 39 -52 82 -109 94 -126 40 -54 110 -195 148
-296 78 -210 121 -358 245 -838 28 -107 59 -229 71 -270 45 -167 110 -556 110
-663 0 -31 4 -34 50 -51 48 -17 52 -17 77 -1 14 10 49 20 77 24 l51 6 -1 105
c-1 80 -9 136 -33 235 -38 159 -44 186 -77 353 -23 121 -49 214 -73 267 -5 11
-12 34 -16 50 -6 33 -53 189 -65 220 -5 11 -27 74 -50 140 -23 66 -50 138 -60
160 -10 22 -48 123 -85 225 -83 229 -107 282 -192 440 -44 81 -72 123 -198
295 -72 99 -437 470 -643 653 -215 192 -227 202 -317 263 -105 72 -235 162
-480 332 -157 109 -239 158 -380 227 -275 134 -416 186 -669 246 -83 20 -209
51 -281 70 -277 73 -511 101 -750 90 -180 -9 -200 -9 -465 -3 -129 3 -260 2
-290 -3z"/>
<path d="M7834 9704 c-80 -42 -141 -111 -157 -176 -10 -40 33 -84 148 -146
109 -60 111 -60 150 17 32 65 55 151 55 208 0 38 -5 54 -26 76 -49 54 -97 59
-170 21z"/>
<path d="M2674 9612 c-21 -16 -54 -46 -73 -67 -31 -35 -33 -42 -29 -95 3 -45
12 -68 44 -116 21 -32 44 -59 51 -59 18 0 282 208 282 223 1 8 -29 42 -66 78
-65 61 -70 64 -119 64 -40 0 -59 -6 -90 -28z"/>
<path d="M2235 9312 c-53 -33 -57 -44 -53 -139 3 -69 9 -100 29 -143 29 -60
60 -100 78 -100 34 0 211 160 211 190 0 21 -88 136 -132 174 -48 41 -86 46
-133 18z"/>
<path d="M8345 9253 c-35 -9 -163 -71 -170 -83 -9 -15 121 -147 193 -197 l53
-37 45 45 c59 57 96 129 98 191 1 53 -5 61 -64 78 -36 10 -119 12 -155 3z"/>
<path d="M1863 8954 c-25 -25 -26 -30 -20 -102 3 -43 13 -97 22 -121 17 -50
53 -111 64 -111 19 0 171 133 171 149 0 46 -148 211 -190 211 -11 0 -33 -12
-47 -26z"/>
<path d="M8735 8861 c-50 -13 -99 -37 -114 -54 -11 -14 -9 -22 17 -55 29 -36
160 -159 186 -174 17 -10 80 51 116 112 38 64 38 100 2 141 -26 29 -34 32
-103 35 -41 2 -87 -1 -104 -5z"/>
<path d="M1407 8523 c-26 -30 -23 -116 9 -183 29 -64 80 -120 107 -120 11 0
48 31 85 71 102 109 100 105 63 143 -39 41 -152 97 -206 103 -31 4 -44 1 -58
-14z"/>
<path d="M9150 8473 c-43 -9 -150 -61 -150 -74 0 -12 107 -166 122 -175 11 -7
93 78 113 116 10 20 15 50 13 83 -3 52 -3 52 -38 53 -19 1 -46 0 -60 -3z"/>
<path d="M1098 8157 c-26 -20 -24 -107 4 -187 18 -50 37 -80 87 -132 35 -38
69 -68 75 -68 7 0 22 10 33 23 26 27 123 202 123 220 0 24 -69 77 -146 114
-84 40 -150 51 -176 30z"/>
<path d="M5235 8150 c-360 -41 -678 -196 -942 -459 -152 -151 -274 -339 -352
-541 -16 -41 -35 -75 -42 -75 -7 0 -80 101 -163 224 -83 123 -155 226 -161
227 -5 2 -46 -54 -90 -124 -87 -140 -171 -254 -247 -338 -41 -45 -56 -54 -83
-54 -67 0 -113 -64 -183 -255 -53 -142 -124 -246 -177 -259 -24 -6 -154 -139
-204 -209 -66 -91 -200 -295 -230 -349 -38 -67 -123 -141 -224 -192 -55 -29
-80 -36 -126 -36 -122 0 -216 -41 -302 -132 -73 -76 -139 -231 -139 -325 l0
-33 60 0 c56 0 62 2 92 36 53 59 92 94 106 94 6 0 12 3 12 8 0 16 111 52 158
50 18 -1 35 2 39 5 3 4 -3 7 -15 7 -19 0 -22 6 -22 44 0 38 3 45 21 48 12 2
27 12 33 23 6 11 12 22 14 25 2 2 7 -2 13 -10 8 -13 13 -11 33 12 15 17 36 28
57 30 19 2 34 8 35 13 3 36 18 65 34 65 11 0 22 5 26 12 5 8 2 9 -11 4 -17 -6
-18 -5 -3 11 8 10 18 26 21 36 4 9 11 17 17 17 6 0 8 4 5 10 -4 6 1 7 11 3 14
-5 16 -3 11 11 -4 9 -3 15 2 11 16 -9 41 6 41 25 0 10 8 21 18 25 9 3 28 20
41 38 40 53 111 96 182 110 51 9 58 12 34 15 -25 4 -27 5 -10 12 11 4 35 2 55
-3 38 -12 123 -68 143 -96 6 -10 35 -31 62 -47 54 -32 52 -31 326 -25 95 3
122 0 150 -14 58 -31 97 -65 127 -114 37 -60 74 -174 67 -209 -4 -21 -4 -23 4
-7 7 17 10 14 22 -25 21 -69 49 -90 123 -89 l61 1 -35 13 -35 13 38 2 c20 2
40 3 45 5 10 2 74 14 118 21 21 3 34 1 30 -4 -3 -5 5 -7 18 -5 13 3 27 0 30
-6 4 -6 24 -11 44 -11 22 0 59 -12 91 -30 30 -17 60 -30 68 -30 7 0 17 -10 22
-22 12 -31 42 -54 65 -50 10 2 16 0 13 -6 -4 -5 0 -18 8 -28 13 -18 45 -19
1124 -19 875 0 1113 3 1122 13 11 10 10 12 -4 12 -32 0 -17 20 38 51 30 17 58
36 63 42 10 16 89 52 132 62 19 4 40 11 46 16 17 14 234 23 234 10 0 -6 22
-13 49 -17 36 -5 48 -10 44 -20 -4 -10 4 -14 30 -14 27 0 37 5 42 20 3 11 11
20 16 20 6 0 7 5 4 10 -3 6 1 10 9 10 9 0 18 13 22 35 3 19 9 35 13 35 3 0 7
20 7 44 1 29 12 63 34 102 18 33 38 69 44 81 6 13 14 23 19 23 4 0 16 9 26 19
23 23 54 41 98 57 24 9 68 9 165 2 98 -8 154 -7 213 1 111 17 127 22 122 36
-3 6 -1 18 4 26 6 9 9 10 9 2 0 -7 7 -10 16 -6 12 4 12 8 4 13 -8 5 -1 10 19
15 20 4 31 13 31 23 0 18 23 23 121 24 54 0 119 -24 119 -44 0 -4 7 -8 15 -8
8 0 15 -6 15 -14 0 -8 8 -16 17 -18 10 -2 18 -12 18 -23 0 -16 6 -20 30 -18
29 3 29 2 8 -9 -13 -6 -23 -20 -23 -30 0 -11 4 -17 9 -14 15 10 67 -17 78 -40
8 -18 8 -22 0 -17 -7 4 -6 -1 2 -10 7 -9 18 -14 24 -10 6 4 8 -4 3 -23 -5 -21
-4 -25 4 -14 7 12 10 12 10 1 0 -8 7 -11 18 -9 15 4 18 1 14 -17 -5 -27 29
-65 58 -65 15 0 20 -7 20 -26 0 -25 2 -26 38 -21 39 5 72 -6 72 -23 0 -6 -11
-10 -25 -10 -14 0 -25 -3 -25 -6 0 -26 94 -56 102 -32 4 10 8 10 21 0 9 -8 13
-20 10 -28 -3 -9 2 -14 18 -15 13 0 18 -3 12 -6 -7 -2 -13 -9 -13 -14 0 -6 8
-6 19 1 24 12 34 13 27 1 -4 -5 8 -13 26 -16 37 -9 142 -91 178 -140 23 -32
29 -34 83 -35 31 0 60 0 65 0 11 1 2 78 -18 151 -37 135 -125 246 -236 300
-47 22 -86 31 -165 39 -101 11 -107 13 -186 63 -145 93 -223 165 -296 273 -36
55 -89 133 -116 174 -28 41 -54 80 -58 86 -4 5 -12 18 -18 27 -5 9 -99 148
-208 309 -108 161 -286 425 -395 587 -108 162 -202 296 -207 298 -6 2 -22 -15
-35 -37 -46 -75 -172 -265 -213 -320 -55 -73 -143 -163 -157 -158 -6 2 -25 46
-44 98 -83 238 -184 398 -366 580 -202 202 -406 324 -680 409 -146 45 -446 70
-615 51z m290 -440 c160 -18 287 -56 415 -123 68 -36 127 -72 140 -87 3 -3 21
-17 40 -31 49 -37 129 -116 170 -169 19 -25 40 -49 45 -55 36 -33 133 -228
163 -325 33 -107 41 -150 51 -255 13 -156 17 -144 -60 -220 -38 -37 -90 -95
-115 -129 -25 -33 -52 -69 -60 -79 -8 -9 -43 -62 -79 -117 -36 -55 -67 -100
-70 -100 -3 0 -39 51 -80 113 -41 61 -127 189 -190 282 -63 94 -175 259 -247
368 -72 108 -135 197 -139 197 -3 0 -41 -53 -82 -117 -42 -65 -106 -155 -142
-200 -55 -68 -71 -83 -94 -83 -16 0 -39 -9 -53 -19 -23 -19 -66 -104 -102
-201 -25 -71 -77 -141 -132 -179 -56 -39 -108 -96 -179 -196 -26 -36 -48 -65
-49 -65 -3 0 -276 407 -361 538 l-50 77 3 80 c3 80 31 231 58 315 49 150 167
340 283 457 44 44 184 153 196 153 3 0 21 11 38 24 80 59 298 129 452 146 103
11 131 11 230 0z"/>
<path d="M9333 8081 c-40 -10 -63 -28 -63 -49 0 -16 100 -208 132 -254 11 -17
29 -28 42 -28 29 0 153 120 162 156 10 40 -3 96 -28 120 -47 44 -174 73 -245
55z"/>
<path d="M943 7625 c-19 -13 -23 -26 -23 -66 0 -42 5 -54 34 -86 19 -21 50
-47 70 -57 l36 -19 26 24 c25 23 84 132 84 155 0 19 -94 58 -150 62 -40 2 -61
-1 -77 -13z"/>
<path d="M9573 7566 c-51 -24 -52 -26 -47 -58 8 -45 33 -116 57 -156 18 -30
24 -33 51 -29 56 10 146 58 191 103 51 50 59 94 26 135 -18 22 -28 24 -123 27
-92 2 -108 0 -155 -22z"/>
<path d="M830 7223 c-32 -12 -50 -47 -50 -101 0 -60 23 -112 68 -155 l30 -29
32 84 c18 45 38 105 46 131 12 46 12 48 -9 56 -33 13 -100 21 -117 14z"/>
<path d="M9795 7153 c-46 -10 -125 -46 -124 -57 0 -6 21 -72 48 -146 46 -133
47 -135 79 -138 48 -5 157 53 225 118 56 55 57 57 57 113 0 48 -4 59 -22 71
-52 34 -192 55 -263 39z"/>
<path d="M569 6701 c-59 -32 -66 -47 -44 -88 23 -42 137 -149 182 -171 17 -8
38 -12 45 -9 16 5 58 150 61 206 3 52 -35 75 -131 79 -61 2 -85 -2 -113 -17z"/>
<path d="M9878 6524 c-17 -29 27 -257 55 -292 22 -28 184 17 227 63 32 34 39
112 12 142 -34 40 -150 87 -223 91 -37 2 -69 0 -71 -4z"/>
<path d="M487 6206 c-21 -8 -53 -24 -72 -37 -44 -31 -54 -82 -30 -154 28 -80
91 -125 179 -125 42 0 45 2 59 39 27 66 47 157 47 209 0 41 -4 54 -22 66 -28
20 -109 20 -161 2z"/>
<path d="M10035 6006 c-51 -15 -53 -29 -25 -153 l22 -96 47 6 c70 8 130 39
189 97 l54 52 -39 40 c-21 22 -52 47 -70 54 -39 17 -123 17 -178 0z"/>
<path d="M1443 4562 c-7 -7 -16 -25 -19 -39 -8 -30 0 -155 11 -173 16 -26 35
22 35 87 0 75 10 83 99 83 l61 0 2 -112 c7 -378 6 -388 -39 -388 -40 -1 -80
-36 -66 -58 8 -13 24 -17 69 -15 116 3 203 15 215 29 19 23 3 44 -34 44 -54 0
-72 28 -73 115 -1 40 -5 140 -9 224 l-7 151 27 10 c31 12 95 13 110 2 6 -4 11
-35 11 -70 1 -50 5 -68 21 -84 33 -32 43 -15 43 76 0 68 -4 88 -19 107 -19 24
-21 24 -222 24 -154 0 -206 -3 -216 -13z"/>
<path d="M5528 4560 c-54 -29 -57 -42 -13 -66 29 -16 34 -57 34 -276 -1 -153
-4 -198 -13 -198 -18 0 -46 -33 -46 -53 0 -39 84 -49 138 -17 40 24 40 35 2
55 l-30 16 0 143 c0 149 4 176 24 176 15 0 46 -85 46 -127 0 -17 5 -55 11 -85
24 -121 48 -178 75 -178 22 0 54 42 54 71 0 16 7 54 15 86 8 31 15 74 15 95 0
83 43 185 63 151 3 -5 8 -85 12 -180 l7 -172 -27 -7 c-43 -11 -27 -38 28 -48
55 -11 100 1 105 27 3 14 -4 17 -37 17 -28 0 -39 4 -36 13 2 6 6 112 8 234 4
225 9 253 43 253 7 0 18 9 24 19 8 17 5 22 -22 35 -55 28 -178 12 -178 -23 -1
-28 -10 -94 -20 -146 -5 -27 -11 -86 -14 -130 -5 -81 -22 -135 -43 -135 -14 0
-37 102 -63 285 -22 151 -19 144 -61 165 -47 24 -54 24 -101 0z"/>
<path d="M3221 4524 c-30 -38 -28 -78 4 -92 14 -7 37 -12 50 -12 13 0 36 5 50
12 34 15 36 79 3 102 -35 25 -83 20 -107 -10z"/>
<path d="M490 4526 c-73 -28 -87 -35 -119 -61 -70 -60 -94 -173 -50 -238 30
-44 89 -96 118 -104 35 -9 182 3 213 17 21 10 26 18 23 39 -3 14 -14 89 -26
166 -21 137 -31 173 -53 187 -17 12 -67 9 -106 -6z"/>
<path d="M9994 4442 c-40 -46 -59 -96 -79 -213 -6 -32 -4 -37 17 -42 37 -10
129 -8 173 4 55 15 125 88 125 131 0 41 -66 129 -118 157 -44 23 -75 14 -118
-37z"/>
<path d="M3705 4383 c-23 -6 -73 -58 -85 -88 -10 -26 17 -101 42 -119 13 -9
28 -12 41 -7 11 4 36 4 56 -1 20 -4 52 -10 71 -13 19 -3 50 -14 68 -25 68 -41
23 -128 -68 -132 -113 -4 -140 7 -160 68 -7 19 -16 35 -21 36 -30 4 -32 1 -32
-67 0 -71 9 -125 22 -125 4 0 17 9 30 21 20 19 29 20 97 14 119 -12 199 24
224 100 14 41 2 70 -44 115 -34 32 -41 34 -125 40 -96 5 -131 23 -131 65 0 41
32 57 97 50 77 -8 111 -22 119 -49 7 -22 22 -36 40 -36 14 0 28 82 19 110 -5
15 -15 20 -39 20 -19 0 -50 7 -69 15 -35 14 -110 18 -152 8z"/>
<path d="M6226 4372 c-38 -14 -53 -26 -68 -57 -19 -36 -19 -40 -4 -72 12 -26
22 -33 43 -33 41 1 63 22 63 62 0 46 15 58 71 58 41 0 51 -4 74 -31 35 -42 31
-80 -10 -92 -16 -5 -43 -15 -60 -22 -16 -8 -54 -14 -83 -14 -68 -1 -104 -20
-126 -70 -33 -72 -4 -134 73 -160 49 -16 88 -13 163 12 l66 23 34 -20 c23 -13
42 -17 61 -12 32 8 62 49 53 72 -6 15 -9 15 -29 -5 -13 -11 -28 -21 -34 -21
-13 0 -23 80 -23 188 0 99 -15 139 -65 178 -47 36 -127 42 -199 16z m214 -252
c0 -86 -43 -130 -132 -137 -117 -8 -174 49 -110 110 24 23 46 31 111 41 45 7
85 16 88 20 3 3 15 6 25 6 14 0 18 -8 18 -40z"/>
<path d="M8460 4371 c-66 -27 -97 -93 -64 -139 32 -46 96 -19 100 43 4 46 15
55 71 55 48 0 89 -29 98 -71 7 -30 -15 -59 -46 -59 -11 0 -32 -6 -47 -14 -15
-7 -55 -16 -90 -19 -35 -4 -72 -11 -82 -17 -24 -13 -50 -71 -50 -110 0 -37 40
-84 82 -96 42 -13 155 -2 198 19 30 16 34 15 70 -6 37 -21 40 -21 73 -5 37 18
56 53 38 71 -8 8 -18 4 -36 -13 -14 -13 -27 -22 -29 -19 -9 9 -26 152 -26 218
0 87 -9 112 -54 146 -47 36 -139 43 -206 16z m213 -264 c-5 -89 -65 -134 -164
-125 -98 10 -127 61 -65 116 27 23 48 31 98 37 34 4 72 11 83 16 40 16 50 7
48 -44z"/>
<path d="M1973 4365 c-18 -8 -33 -18 -33 -23 0 -18 36 -41 70 -44 l35 -3 3
-148 c3 -156 2 -153 57 -207 38 -38 59 -37 151 1 l74 31 21 -26 c17 -22 29
-26 68 -26 36 0 53 5 67 21 28 31 4 60 -58 73 l-27 6 1 170 c1 93 -1 172 -5
176 -13 13 -131 4 -146 -11 -13 -13 -12 -17 3 -34 10 -11 30 -21 44 -23 31 -4
41 -36 44 -139 1 -57 -2 -71 -23 -97 -33 -41 -112 -76 -155 -67 -57 10 -63 30
-57 180 7 166 4 181 -45 194 -46 13 -50 13 -89 -4z"/>
<path d="M2872 4370 c-19 -4 -54 -18 -79 -31 l-44 -23 -24 26 c-22 24 -28 25
-92 21 -73 -6 -89 -13 -80 -37 5 -12 20 -16 56 -16 27 0 52 -4 56 -10 3 -5 7
-73 8 -150 2 -130 0 -143 -17 -156 -11 -8 -34 -14 -52 -14 -32 0 -60 -22 -50
-38 9 -14 236 -15 236 -1 0 7 11 9 30 6 20 -5 30 -3 30 6 -1 26 -28 46 -66 49
l-39 3 -7 77 c-6 69 -5 82 15 116 32 57 88 102 126 102 27 0 31 -3 31 -28 0
-59 75 -85 106 -37 15 23 15 31 4 66 -23 70 -65 89 -148 69z"/>
<path d="M4255 4359 c-42 -17 -56 -18 -86 -8 -27 8 -41 8 -58 0 -27 -15 -27
-25 4 -55 24 -24 25 -30 25 -157 0 -130 -1 -134 -26 -160 -35 -37 -26 -59 23
-59 83 0 140 33 99 57 -16 9 -27 75 -30 183 -2 67 1 78 23 103 23 25 64 36 75
19 2 -4 6 -67 7 -139 3 -129 2 -133 -22 -159 -21 -23 -22 -27 -8 -37 22 -17
119 -9 126 9 3 8 -2 23 -11 33 -26 29 -26 204 0 257 21 44 57 57 71 27 5 -10
10 -72 12 -138 2 -109 0 -123 -18 -147 -12 -14 -21 -31 -21 -36 0 -14 56 -32
101 -32 79 0 88 21 33 82 l-36 40 5 123 c4 104 2 128 -13 163 -24 53 -55 62
-120 35 -45 -19 -47 -19 -69 -1 -28 22 -24 22 -86 -3z"/>
<path d="M4844 4366 c-53 -14 -116 -64 -137 -108 -9 -19 -17 -67 -19 -110 -2
-65 0 -81 18 -105 33 -44 123 -109 168 -120 85 -22 134 -5 207 69 29 30 37 48
42 90 5 36 3 54 -6 60 -9 6 -9 10 1 20 28 28 -3 119 -49 140 -14 6 -30 20 -35
32 -18 39 -107 55 -190 32z m146 -80 c37 -13 58 -52 59 -108 1 -15 9 -31 18
-36 16 -9 16 -11 0 -27 -9 -9 -17 -23 -17 -32 0 -21 -80 -95 -105 -96 -75 -3
-95 3 -140 47 l-45 44 0 74 c0 62 3 77 23 100 13 15 35 32 48 37 34 14 117 12
159 -3z"/>
<path d="M7168 4369 c-55 -21 -42 -60 24 -68 l43 -6 3 -148 c3 -156 2 -154 57
-209 36 -36 73 -34 161 6 l57 26 27 -25 c20 -19 37 -25 71 -25 45 0 79 21 79
47 0 18 -36 43 -63 43 -16 0 -28 7 -31 18 -3 9 -5 86 -5 170 1 94 -3 158 -10
166 -13 16 -120 10 -139 -8 -20 -19 -4 -46 28 -46 42 0 52 -22 58 -123 4 -89
3 -94 -22 -124 -36 -43 -110 -76 -152 -68 -59 11 -65 31 -58 195 6 137 5 146
-13 163 -25 22 -79 30 -115 16z"/>
<path d="M7926 4359 c-27 -15 -48 -19 -70 -14 -57 11 -78 10 -89 -6 -7 -12 -3
-22 17 -42 26 -26 26 -28 26 -163 0 -133 -1 -137 -25 -156 -14 -11 -25 -29
-25 -40 0 -20 4 -21 63 -15 34 3 70 9 80 12 20 8 22 31 3 42 -16 9 -27 76 -29
183 -2 65 1 78 22 103 17 20 31 27 50 25 l26 -3 3 -142 c2 -134 1 -143 -18
-153 -11 -6 -20 -17 -20 -26 0 -16 36 -33 60 -28 8 1 28 3 43 3 36 1 44 24 19
55 -16 21 -19 39 -17 120 3 114 25 171 65 171 23 0 26 -5 32 -55 3 -30 6 -91
7 -136 1 -67 -2 -85 -19 -104 -29 -33 -25 -45 18 -59 49 -16 112 -11 126 11 8
14 4 24 -24 53 l-35 36 -1 137 c-1 188 -22 227 -111 203 -21 -6 -44 -15 -52
-20 -9 -6 -24 -2 -45 10 -37 23 -32 23 -80 -2z"/>
<path d="M9230 4373 c-77 -6 -90 -11 -90 -38 0 -18 7 -26 25 -31 20 -5 25 -12
24 -38 0 -34 -68 -178 -84 -180 -14 -1 -83 143 -84 176 -1 19 7 33 24 44 55
36 16 73 -63 60 -20 -4 -62 -10 -92 -14 -41 -5 -56 -11 -58 -24 -3 -15 4 -18
35 -18 48 0 64 -12 96 -75 41 -79 107 -251 107 -279 0 -37 -30 -105 -51 -116
-25 -14 -29 -13 -29 9 0 22 -42 58 -76 67 -38 10 -63 -4 -70 -40 -11 -62 46
-134 113 -143 35 -5 42 -1 79 37 46 46 98 161 89 191 -4 10 -2 19 4 19 9 0 48
77 78 155 47 126 68 159 101 166 40 8 52 17 52 39 0 13 -11 22 -37 29 -21 6
-40 10 -43 9 -3 -1 -25 -3 -50 -5z"/>
<path d="M833 4343 c-10 -26 70 -349 106 -428 5 -11 21 -56 36 -100 144 -419
176 -481 470 -925 89 -135 194 -297 233 -360 39 -63 90 -140 114 -171 24 -31
71 -92 104 -135 86 -111 175 -207 413 -442 320 -317 444 -404 906 -642 293
-151 467 -217 725 -275 36 -8 89 -21 119 -29 71 -21 265 -64 366 -82 316 -58
448 -74 620 -75 88 0 185 -4 215 -9 30 -5 98 -14 150 -20 52 -6 149 -18 215
-27 66 -8 192 -17 281 -20 138 -5 178 -3 280 16 108 20 151 32 334 91 67 22
180 57 320 100 361 110 435 145 725 342 337 230 424 299 619 494 183 183 372
377 436 449 108 121 452 562 523 670 204 310 228 351 297 510 69 161 97 255
229 790 38 154 67 283 64 288 -2 4 -51 7 -108 7 -117 0 -105 9 -125 -95 -51
-265 -164 -628 -265 -850 -7 -16 -38 -84 -68 -150 -99 -218 -281 -543 -412
-735 -159 -232 -191 -276 -316 -430 -148 -182 -385 -406 -564 -534 -273 -195
-544 -349 -950 -541 -233 -111 -337 -151 -570 -224 -94 -29 -176 -46 -295 -62
-150 -19 -193 -21 -475 -15 -440 10 -530 20 -965 105 -85 17 -186 38 -225 46
-38 9 -97 22 -130 29 -298 67 -604 175 -891 316 -155 76 -371 202 -444 258
-19 15 -55 41 -80 57 -24 17 -51 35 -60 42 -184 145 -237 188 -298 248 -213
204 -312 309 -406 428 -130 167 -314 455 -464 727 -69 124 -119 211 -176 303
-140 227 -246 466 -310 697 -8 30 -26 93 -40 140 -14 47 -33 116 -42 153 -9
38 -22 70 -28 72 -6 2 -51 6 -99 8 -73 4 -89 2 -94 -10z"/>
<path d="M3098 4349 c-10 -5 -18 -17 -18 -25 0 -25 50 -36 127 -29 63 6 73 4
81 -12 16 -29 15 -265 -1 -286 -10 -15 -28 -18 -99 -18 -103 -1 -120 -12 -82
-52 29 -31 41 -33 80 -12 16 8 52 15 80 15 28 0 71 7 94 15 53 19 79 19 99 1
23 -19 76 -27 90 -13 19 19 13 31 -29 55 -33 19 -49 22 -89 16 -63 -8 -71 5
-71 116 0 45 -5 90 -10 100 -7 13 -6 27 2 45 14 31 -2 67 -39 84 -30 14 -192
14 -215 0z"/>
<path d="M6822 4338 c-58 -19 -64 -20 -80 -4 -26 22 -130 23 -139 0 -7 -18 12
-34 43 -34 48 0 51 -18 50 -270 l-1 -234 -35 -11 c-94 -27 -70 -45 62 -45 100
0 128 11 93 37 -11 7 -28 13 -39 13 -32 0 -50 50 -39 108 9 54 31 64 82 38 17
-9 55 -16 86 -16 52 0 58 3 96 42 62 64 74 92 74 180 0 49 -5 82 -12 90 -7 6
-13 20 -13 30 0 23 -35 56 -85 79 -50 23 -65 23 -143 -3z m140 -56 c16 -10 37
-39 53 -74 24 -52 25 -62 14 -96 -26 -80 -33 -93 -62 -118 -27 -23 -38 -26
-89 -22 -49 4 -63 9 -92 37 -31 30 -33 37 -35 99 -1 95 11 139 51 172 29 25
39 28 83 23 28 -3 62 -13 77 -21z"/>
<path d="M640 3916 c-61 -17 -120 -49 -149 -80 -20 -22 -23 -32 -19 -81 3 -40
11 -62 29 -81 23 -26 26 -26 114 -20 113 8 202 20 211 29 10 10 -12 80 -53
170 -40 86 -44 87 -133 63z"/>
<path d="M9821 3883 c-6 -16 -19 -73 -30 -128 -23 -118 -20 -126 58 -167 60
-33 78 -34 127 -11 l36 18 -4 67 c-6 81 -36 136 -109 202 -28 25 -55 46 -59
46 -4 0 -13 -12 -19 -27z"/>
<path d="M6247 3696 c-3 -7 -32 -28 -64 -46 -75 -41 -123 -87 -123 -117 0 -13
11 -50 25 -83 14 -33 25 -69 25 -82 0 -31 -14 -12 -28 38 -13 44 -55 94 -79
94 -33 0 -137 -94 -129 -116 2 -6 8 -33 11 -60 l7 -49 -30 29 -31 29 -40 -34
c-22 -19 -55 -64 -75 -104 -20 -38 -49 -86 -66 -105 -22 -26 -30 -45 -30 -74
0 -28 -7 -45 -24 -61 -33 -31 -48 -87 -34 -128 6 -18 15 -34 19 -37 13 -9 21
-58 11 -64 -6 -3 -24 6 -42 20 -17 15 -33 24 -36 21 -10 -10 14 -42 54 -72 23
-16 45 -40 51 -52 9 -21 7 -23 -32 -34 -23 -6 -57 -18 -75 -26 -31 -15 -33
-15 -55 13 -64 83 -188 182 -260 208 -27 10 -63 34 -80 53 -34 37 -76 63 -102
63 -26 0 -16 -24 21 -50 20 -13 50 -41 67 -62 21 -26 34 -35 42 -28 22 18 125
-46 198 -122 37 -39 67 -75 67 -79 0 -4 18 -28 39 -53 58 -67 76 -122 63 -194
-6 -31 -10 -91 -9 -132 2 -73 3 -75 26 -72 13 2 44 1 68 -3 37 -5 43 -10 43
-31 0 -15 -6 -24 -15 -24 -8 0 -15 -7 -15 -14 0 -8 -14 -28 -31 -44 -19 -18
-27 -32 -21 -36 6 -4 18 4 27 18 20 29 48 35 205 40 95 3 123 8 163 27 26 13
47 29 47 36 0 7 11 15 25 18 14 3 36 7 50 10 14 3 34 1 45 -5 31 -16 24 4 -14
44 -25 27 -42 36 -65 36 -17 0 -46 6 -64 13 -18 8 -55 12 -84 11 -39 -2 -58 2
-77 17 -13 10 -35 18 -47 17 -18 -2 -25 3 -29 22 -6 31 -99 150 -116 150 -7 0
-27 19 -45 42 l-33 41 76 -6 c69 -6 153 -30 201 -57 11 -7 17 -7 17 0 0 5 -5
10 -11 10 -5 0 -7 5 -4 10 10 16 19 12 61 -21 21 -17 51 -33 67 -36 15 -3 32
-13 37 -23 6 -11 27 -20 59 -24 59 -8 75 -24 32 -32 -30 -6 -46 -19 -53 -41
-2 -6 2 -12 7 -13 6 -1 17 -8 25 -15 14 -12 20 -12 43 0 17 8 27 10 27 3 0 -5
6 -8 14 -5 8 3 25 -2 38 -12 31 -23 107 -51 140 -51 36 0 48 25 48 98 0 55
-33 163 -61 195 -5 7 -23 30 -40 51 -100 131 -165 172 -293 183 -123 10 -78
26 53 18 122 -7 209 -34 247 -76 9 -11 20 -19 24 -19 13 0 129 246 146 310 26
94 24 221 -4 283 -12 26 -26 76 -32 110 -22 120 -66 236 -95 247 -26 10 -43
59 -24 71 17 10 3 39 -20 39 -10 0 -21 -6 -24 -14z m94 -248 c21 -29 24 -44
24 -123 1 -51 6 -99 13 -112 7 -12 12 -37 12 -55 0 -38 -21 -123 -39 -155 -6
-12 -14 -46 -17 -75 -3 -29 -14 -68 -24 -88 l-18 -35 -7 28 c-4 16 -5 45 -2
65 12 72 19 107 26 122 4 8 5 40 3 70 -7 112 -4 141 16 189 21 47 21 51 6 102
-9 30 -20 58 -25 64 -11 11 -12 35 -1 35 5 0 19 -15 33 -32z m-335 -253 c5
-33 8 -37 14 -20 l9 20 1 -20 c1 -18 1 -19 11 -2 5 9 17 17 24 17 8 0 15 6 16
13 0 6 5 -3 10 -21 5 -18 14 -30 19 -27 6 4 12 -1 15 -9 3 -9 7 -23 9 -30 4
-13 9 -13 35 0 17 9 31 22 31 30 0 17 16 18 26 2 6 -9 10 -5 15 12 6 21 7 19
8 -12 1 -21 6 -38 11 -38 6 0 11 17 11 38 1 20 5 51 8 67 5 21 7 10 7 -37 0
-48 -4 -69 -14 -73 -7 -3 -11 -13 -8 -22 2 -10 7 -34 11 -53 l6 -35 -18 30
-17 30 -7 -43 c-10 -56 -15 -62 -47 -62 -20 0 -23 -3 -13 -9 8 -5 21 -7 29 -3
10 4 13 1 8 -7 -5 -8 -18 -10 -32 -7 -20 5 -24 3 -24 -17 0 -43 -29 -55 -136
-56 -95 -1 -115 -8 -113 -36 0 -5 3 -4 6 3 2 7 20 12 41 11 l37 -1 -40 -13
c-22 -8 -57 -14 -77 -14 l-38 -1 0 43 c0 23 -5 60 -10 82 -6 25 -6 41 0 43 6
2 10 14 10 26 0 12 9 29 20 38 17 15 24 16 50 4 17 -7 43 -11 58 -8 27 4 27 4
28 85 0 45 -1 63 -3 40 -5 -54 -23 -56 -23 -3 0 22 5 40 10 40 6 0 11 17 11
38 1 38 3 35 15 -33z m78 -548 c84 -39 173 -140 200 -230 4 -11 15 -21 26 -24
21 -6 26 -18 10 -28 -5 -3 -18 3 -29 14 -11 11 -33 23 -48 27 -16 4 -35 12
-43 18 -62 47 -156 74 -144 41 11 -27 -20 -25 -106 6 -47 17 -97 33 -112 36
-33 6 -36 19 -7 28 12 4 19 13 17 23 -3 14 -17 17 -91 16 -48 0 -87 2 -87 5 1
14 18 28 50 40 19 7 44 17 55 22 99 46 215 49 309 6z"/>
<path d="M791 3454 c-61 -31 -69 -43 -46 -78 17 -26 17 -26 -8 -26 -14 0 -29
5 -32 10 -9 15 -35 -7 -35 -30 0 -22 95 -111 143 -133 38 -18 171 -24 196 -8
11 7 6 29 -28 115 -57 145 -76 176 -110 176 -15 0 -51 -12 -80 -26z"/>
<path d="M9667 3318 c-14 -35 -28 -75 -31 -90 -3 -14 -9 -33 -12 -42 -9 -22
67 -55 128 -56 40 0 50 4 72 31 43 51 32 94 -43 169 -67 67 -82 66 -114 -12z"/>
<path d="M4245 3302 c22 -20 57 -58 78 -84 28 -36 48 -50 80 -58 23 -6 52 -16
63 -21 12 -6 31 -8 41 -5 30 9 55 -3 48 -24 -8 -24 26 -32 152 -36 110 -3 125
-8 191 -61 23 -19 42 -30 42 -24 0 5 -34 37 -76 71 l-76 62 -102 3 c-57 1
-112 8 -124 14 -11 6 -28 11 -37 11 -9 0 -35 13 -58 29 -23 15 -64 38 -91 50
-26 11 -68 41 -91 66 -24 25 -52 45 -62 45 -14 0 -8 -10 22 -38z"/>
<path d="M1061 2954 c-28 -15 -59 -37 -67 -49 -14 -22 -13 -29 13 -91 25 -60
32 -69 63 -77 55 -14 134 -4 174 24 20 13 36 30 36 37 0 14 -71 123 -103 160
-27 29 -51 28 -116 -4z"/>
<path d="M9453 2889 c-55 -65 -100 -156 -87 -176 18 -29 97 -63 145 -63 82 0
109 63 78 184 -11 43 -60 106 -82 106 -7 0 -31 -23 -54 -51z"/>
<path d="M1339 2553 c-110 -114 -114 -128 -48 -188 33 -30 46 -35 87 -35 26 0
63 4 82 9 19 5 47 12 63 15 15 4 27 12 27 19 0 14 -87 165 -107 185 -7 7 -18
22 -23 33 -6 10 -14 19 -18 19 -4 0 -33 -26 -63 -57z"/>
<path d="M9178 2483 c-47 -50 -88 -111 -88 -134 0 -17 104 -100 168 -133 41
-21 92 -20 120 3 28 25 30 96 3 149 -21 42 -132 152 -153 152 -8 0 -30 -17
-50 -37z"/>
<path d="M1643 2148 c-63 -71 -68 -110 -20 -155 47 -44 123 -76 190 -81 78 -6
93 18 45 70 -7 7 -48 53 -91 101 -44 48 -84 87 -91 87 -7 0 -22 -10 -33 -22z"/>
<path d="M8915 2157 c-6 -7 -22 -28 -35 -47 -14 -19 -40 -52 -57 -73 -18 -20
-33 -45 -33 -55 0 -74 214 -137 267 -79 63 69 58 97 -32 190 -75 77 -91 87
-110 64z"/>
<path d="M6240 2109 c0 -16 140 -166 230 -245 19 -16 54 -50 76 -75 42 -44
164 -118 164 -98 0 37 -272 346 -361 410 -43 30 -109 35 -109 8z"/>
<path d="M5292 1896 c-40 -89 -46 -273 -12 -387 11 -37 27 -111 35 -165 26
-171 67 -287 107 -300 9 -3 15 -11 12 -19 -3 -7 -1 -16 5 -20 14 -8 14 20 1
45 -14 27 9 81 46 105 16 10 53 28 83 40 68 26 78 45 23 45 -31 0 -41 -4 -45
-20 -3 -11 -10 -20 -15 -20 -11 0 -42 61 -42 84 0 9 -7 17 -15 17 -8 1 -19 3
-25 4 -5 1 -15 3 -20 4 -6 0 -22 27 -36 58 -20 47 -24 71 -23 133 2 58 -2 85
-18 120 -52 112 -55 123 -48 190 4 36 9 75 12 88 7 29 -11 28 -25 -2z"/>
<path d="M8517 1714 c-119 -116 -118 -116 -60 -158 62 -45 124 -76 165 -82 27
-4 39 1 67 27 33 32 33 33 27 97 -4 35 -16 83 -26 105 -20 42 -64 97 -78 97
-4 0 -46 -39 -95 -86z"/>
<path d="M2006 1670 c-74 -79 -96 -154 -58 -200 36 -44 229 -65 330 -35 29 9
52 18 52 21 0 29 -229 264 -257 264 -11 0 -41 -22 -67 -50z"/>
<path d="M5967 1508 c-3 -10 -22 -20 -44 -24 -39 -7 -83 -38 -83 -60 0 -6 -10
-15 -22 -18 l-23 -7 25 -11 c14 -6 34 -13 45 -15 11 -2 39 -22 62 -45 54 -53
73 -43 73 41 0 67 -23 164 -33 139z"/>
<path d="M8109 1332 c-34 -23 -182 -144 -191 -157 -17 -24 -5 -53 40 -97 96
-94 177 -104 217 -28 18 35 20 174 4 250 -12 55 -25 61 -70 32z"/>
<path d="M2484 1265 c-21 -51 -28 -146 -12 -166 25 -31 83 -59 121 -59 44 0
129 40 151 72 23 33 20 53 -11 69 -15 8 -67 38 -116 67 -48 28 -95 52 -103 52
-8 0 -22 -16 -30 -35z"/>
<path d="M2950 1018 c-7 -18 -21 -51 -30 -73 -24 -55 -34 -138 -20 -164 33
-62 231 34 271 131 12 29 11 32 -12 51 -34 28 -155 87 -178 87 -12 0 -23 -12
-31 -32z"/>
<path d="M7612 974 c-34 -20 -84 -55 -110 -79 -55 -51 -53 -61 22 -112 41 -28
57 -33 107 -33 52 0 60 3 76 26 26 40 30 141 7 189 -11 21 -23 40 -29 41 -5 2
-38 -13 -73 -32z"/>
<path d="M3382 828 c-40 -50 -53 -148 -26 -200 16 -30 17 -31 75 -24 32 3 75
12 95 21 38 16 124 98 124 118 0 13 -206 97 -238 97 -11 0 -24 -6 -30 -12z"/>
<path d="M7061 686 c-69 -23 -126 -47 -128 -52 -6 -18 45 -98 92 -144 40 -40
51 -45 90 -45 77 0 145 84 145 180 0 60 -23 105 -53 104 -12 0 -78 -20 -146
-43z"/>
<path d="M3902 647 c-7 -18 -12 -62 -12 -97 0 -59 2 -64 37 -97 35 -34 39 -35
102 -31 42 3 84 13 116 28 55 27 145 108 145 131 0 10 -49 26 -177 57 -98 23
-183 42 -188 42 -6 0 -16 -15 -23 -33z"/>
<path d="M6630 533 c-36 -7 -89 -23 -117 -34 -47 -19 -53 -25 -53 -50 0 -39
53 -142 86 -168 39 -31 59 -26 114 25 58 54 75 97 66 167 -8 71 -17 77 -96 60z"/>
<path d="M4657 513 c-4 -3 -7 -23 -7 -44 0 -29 9 -48 38 -82 44 -54 64 -61
111 -41 38 16 141 110 141 129 0 20 -266 56 -283 38z"/>
<path d="M5231 460 c-21 -9 -23 -14 -17 -53 9 -58 49 -142 82 -172 21 -20 37
-25 76 -25 63 0 104 18 152 68 38 40 82 140 68 154 -24 24 -317 47 -361 28z"/>
<path d="M5884 395 c-4 -8 -5 -46 -2 -83 3 -55 9 -74 32 -105 25 -32 34 -37
70 -37 36 0 48 6 83 43 48 48 82 117 83 165 l0 32 -130 0 c-107 0 -132 -3
-136 -15z"/>
</g>
</svg>
