<svg version="1.0" xmlns="http://www.w3.org/2000/svg"
 width="980.000000pt" height="563.000000pt" viewBox="0 0 980.000000 563.000000"
 preserveAspectRatio="xMidYMid meet">
<path d="M741 5592 c50 -56 88 -80 148 -92 28 -5 62 -16 73 -24 16 -11 26 -12
41 -5 10 6 35 8 54 4 33 -6 34 -7 18 -25 -16 -18 -15 -19 22 -31 21 -6 93 -13
160 -14 173 -4 194 -9 285 -71 43 -30 81 -54 84 -54 18 0 -57 75 -100 100 -29
16 -60 38 -70 49 -30 33 -81 43 -205 43 -137 0 -198 13 -306 66 -160 79 -191
92 -214 92 -23 0 -22 -1 10 -38z"/>
<path d="M2674 5597 c-12 -17 -33 -54 -48 -80 -15 -27 -48 -68 -73 -92 -44
-43 -45 -46 -41 -97 3 -48 1 -53 -19 -56 -24 -4 -44 -30 -61 -80 -13 -38 -5
-67 34 -124 14 -20 24 -46 22 -58 -3 -21 -5 -20 -48 14 -40 32 -80 47 -80 30
0 -20 40 -65 91 -101 81 -58 79 -74 -13 -98 -40 -10 -77 -25 -82 -33 -6 -11
-21 -2 -66 44 -63 65 -121 114 -160 134 -14 7 -37 23 -52 36 -15 12 -63 34
-106 48 -52 18 -89 37 -108 57 -16 17 -43 39 -60 50 -33 20 -125 51 -132 44
-12 -12 16 -45 69 -80 33 -22 78 -62 100 -88 23 -27 44 -46 47 -43 2 3 -1 12
-8 21 -23 28 38 17 118 -21 54 -26 98 -58 158 -116 46 -45 84 -87 84 -94 0 -7
18 -28 41 -46 46 -38 99 -133 99 -178 0 -17 -6 -43 -14 -58 -10 -20 -12 -55
-8 -132 l4 -105 85 -1 c60 0 88 -5 99 -15 17 -18 9 -49 -12 -49 -8 0 -19 -10
-24 -22 -4 -13 -22 -34 -39 -47 -17 -13 -31 -29 -31 -37 0 -22 15 -16 29 10
17 31 85 51 168 49 35 0 60 3 57 8 -3 5 11 7 31 3 28 -4 35 -2 30 7 -5 7 -3
10 6 7 8 -3 13 -11 12 -17 -4 -14 27 -14 101 0 68 12 132 39 164 67 33 29 143
40 177 18 45 -29 46 -17 4 39 -44 59 -95 83 -147 70 -57 -14 -206 89 -238 165
-8 19 -25 43 -37 52 l-22 17 33 7 c37 8 40 16 12 44 -19 19 -27 40 -15 40 25
0 78 -35 101 -66 16 -22 37 -45 46 -52 20 -15 24 -42 7 -42 -7 0 -18 8 -25 17
-16 23 -28 11 -19 -17 7 -21 82 -63 96 -54 5 2 11 24 14 49 7 42 8 43 32 34
13 -5 39 -9 58 -9 70 0 88 -24 25 -33 -50 -6 -70 -22 -70 -54 0 -26 13 -43 47
-61 33 -18 56 -15 93 13 41 30 44 30 68 5 23 -25 145 -60 206 -60 40 0 45 3
55 31 44 128 -33 305 -192 440 -40 34 -77 68 -83 75 -21 26 -156 64 -264 75
-58 5 -109 12 -115 15 -5 2 73 1 175 -2 173 -5 190 -8 261 -35 42 -16 86 -40
99 -54 13 -14 27 -25 30 -25 4 0 32 43 61 95 30 53 64 107 75 120 12 14 29 51
38 82 10 32 24 78 33 103 32 97 32 215 -1 293 -15 36 -16 37 -70 37 -31 0 -56
-3 -56 -7 0 -5 9 -23 20 -41 11 -18 20 -47 20 -65 0 -43 -32 -151 -61 -206
-15 -30 -23 -60 -22 -90 2 -49 -17 -95 -43 -105 -9 -4 -19 -5 -21 -2 -14 14 3
120 37 232 13 40 13 111 -1 174 -7 35 -8 60 0 80 8 24 7 30 -5 30 -7 0 -14 -7
-14 -16 0 -8 -5 -12 -10 -9 -6 4 -8 11 -5 16 4 5 1 9 -5 9 -10 0 -3 -50 9 -60
3 -3 7 -27 8 -55 4 -89 5 -139 4 -171 -1 -39 -28 -54 -40 -22 -7 20 -9 20 -13
-10 -3 -18 -2 -35 2 -37 4 -3 5 -16 2 -30 -2 -15 0 -25 7 -25 6 0 11 -10 11
-22 l0 -21 -25 23 c-19 18 -22 26 -13 32 10 6 9 8 -4 8 -9 0 -19 6 -21 13 -4
9 -6 9 -6 -1 -1 -7 -6 -10 -13 -6 -8 5 -9 2 -5 -11 6 -14 3 -17 -18 -13 -22 5
-25 2 -24 -21 1 -17 3 -20 6 -8 4 16 23 25 23 10 -1 -30 -42 -46 -67 -28 -34
26 -52 13 -30 -22 11 -17 -11 -27 -29 -12 -11 9 -20 9 -37 0 -13 -7 -73 -13
-143 -14 l-121 -2 -10 -32 c-5 -18 -6 -33 -2 -33 5 0 9 7 9 16 0 8 5 12 11 8
7 -4 6 -11 -4 -21 -12 -12 -19 -13 -36 -3 -14 7 -42 9 -75 5 -45 -6 -54 -4
-60 10 -4 10 -12 15 -22 11 -8 -3 -13 -2 -10 3 6 10 -10 25 -37 34 -15 6 -17
3 -12 -16 5 -17 4 -19 -4 -7 -21 30 -13 50 19 50 20 0 30 -5 30 -15 0 -13 12
-15 63 -14 69 2 86 7 66 20 -11 7 -10 9 3 9 9 0 18 -5 20 -12 3 -7 9 -8 18 -3
20 12 -13 23 -72 24 l-48 1 0 70 c0 60 3 70 18 70 14 0 15 2 2 10 -23 15 6 12
31 -2 18 -11 23 -10 40 11 10 12 16 27 13 33 -3 5 4 18 17 29 17 14 24 16 30
7 4 -7 5 -16 3 -20 -9 -15 27 -8 43 8 11 10 19 12 26 5 10 -10 29 2 40 29 4 8
6 -7 4 -33 -2 -41 0 -45 11 -30 7 10 10 24 7 32 -5 12 -3 12 12 0 15 -13 16
-12 7 6 -9 20 -9 119 0 165 3 14 3 19 0 13 -8 -19 -45 -17 -38 2 4 8 10 12 15
9 5 -3 9 9 9 25 l0 31 -162 0 -163 0 -21 -33z m426 -672 c74 -18 157 -65 217
-122 49 -48 105 -128 118 -170 3 -13 14 -23 25 -23 23 0 33 -25 15 -40 -12
-10 -17 -8 -24 11 -5 13 -10 18 -10 10 -1 -11 -5 -11 -19 2 -10 9 -34 20 -53
23 -19 4 -41 13 -50 20 -30 26 -136 72 -170 74 -49 3 -54 1 -41 -12 39 -39
-36 -33 -168 14 -47 17 -100 32 -118 33 -44 3 -49 11 -13 23 36 13 40 36 10
52 -19 11 -167 6 -211 -6 -29 -8 -21 22 11 45 16 12 37 21 46 21 10 0 50 12
89 26 116 42 227 48 346 19z m-536 -191 c61 -6 217 -51 233 -68 11 -10 -47 -7
-67 4 -22 12 -70 3 -70 -12 0 -5 13 -14 29 -19 19 -7 31 -19 34 -37 5 -26 63
-113 105 -159 30 -32 15 -35 -36 -7 -29 16 -53 23 -69 19 -19 -4 -23 -1 -23
17 0 13 -14 37 -32 54 -38 35 -78 85 -78 96 0 4 -19 17 -43 28 -24 11 -61 39
-83 61 l-39 41 35 -5 c19 -3 66 -9 104 -13z"/>
<path d="M3133 5603 c-14 -28 -18 -81 -6 -70 3 4 15 0 25 -10 13 -11 18 -12
18 -3 0 10 3 10 15 0 8 -7 15 -21 15 -31 0 -11 5 -19 10 -19 13 0 13 23 -1 37
-8 8 -8 17 -1 29 9 16 12 12 22 -27 10 -41 14 -45 44 -47 29 -2 33 1 33 20 1
42 3 48 17 48 8 0 17 -7 20 -16 3 -8 10 -12 16 -9 6 3 7 -1 4 -9 -3 -9 -1 -16
5 -16 7 0 11 -24 11 -65 0 -58 9 -80 24 -57 11 19 17 112 6 112 -14 0 -31 46
-24 64 3 8 13 17 22 20 10 3 5 4 -10 2 -26 -3 -26 -2 -14 23 24 47 14 51 -117
51 l-122 0 -12 -27z"/>
<path d="M3313 4339 c35 -30 47 -48 47 -69 0 -19 8 -33 28 -46 15 -10 54 -45
88 -78 33 -34 82 -77 109 -96 26 -19 84 -67 129 -106 45 -39 96 -79 114 -89
17 -11 32 -22 32 -26 0 -18 -35 -71 -63 -96 -18 -16 -41 -47 -52 -68 -11 -22
-29 -51 -40 -65 -19 -23 -34 -54 -106 -217 -12 -29 -25 -53 -29 -53 -8 0 -45
53 -172 242 -55 81 -103 150 -108 153 -10 6 -225 -308 -233 -341 -2 -10 -5 -3
-6 18 -1 51 -32 188 -42 188 -5 0 -13 -9 -19 -20 -7 -13 -25 -21 -60 -26 -38
-5 -58 -14 -80 -37 -17 -17 -30 -37 -30 -44 0 -7 -11 -13 -25 -13 -14 0 -25
-4 -25 -10 0 -5 11 -10 24 -10 14 0 28 -4 31 -10 3 -5 16 -10 28 -10 21 0 127
-83 127 -99 0 -10 -46 -31 -69 -31 -34 0 -69 -39 -110 -125 -22 -47 -41 -92
-41 -100 0 -7 -4 -17 -10 -20 -5 -3 -10 -15 -10 -25 0 -10 -3 -20 -7 -22 -5
-1 -18 -23 -31 -48 -28 -57 -55 -87 -111 -125 -55 -37 -138 -129 -205 -224
-144 -209 -182 -269 -172 -278 3 -4 14 1 23 9 10 9 37 19 60 23 30 5 40 11 36
20 -7 20 53 42 107 39 63 -3 140 -39 132 -62 -2 -7 2 -10 10 -7 21 7 58 -30
53 -54 -2 -12 0 -19 6 -16 5 4 7 11 3 17 -3 5 8 2 26 -7 44 -23 121 -45 133
-38 5 3 64 7 132 9 113 4 126 2 166 -19 32 -17 43 -28 41 -42 -2 -15 -1 -17 6
-6 19 27 50 -20 126 -191 9 -20 16 -40 16 -46 0 -5 12 -23 28 -39 27 -29 28
-29 107 -22 109 10 205 11 205 1 0 -4 16 -7 35 -7 30 1 120 -35 185 -74 8 -5
27 -14 43 -22 20 -9 26 -18 22 -33 -3 -12 -2 -15 1 -9 4 9 13 7 32 -7 25 -18
51 -19 402 -21 206 -1 634 -1 950 0 l576 2 27 25 c15 14 27 27 27 30 0 10 -39
-17 -48 -32 -5 -9 -17 -14 -27 -13 -14 3 -3 15 41 44 32 22 61 43 62 48 7 14
24 7 19 -7 -4 -10 -1 -13 9 -9 9 3 12 12 8 25 -4 13 -2 18 5 14 6 -4 25 1 42
10 18 9 46 14 65 12 18 -2 30 0 28 4 -3 4 -13 8 -22 9 -9 1 10 7 43 13 33 7
63 9 68 6 4 -4 29 -4 56 0 27 3 57 3 67 -1 11 -4 40 -8 65 -8 35 -1 50 4 66
22 21 22 83 150 83 171 0 6 8 22 17 35 16 23 17 24 25 5 6 -14 7 -11 3 10 -4
21 -1 34 14 47 11 11 22 19 25 19 3 0 16 10 30 23 38 36 96 44 225 34 98 -8
121 -7 174 9 36 11 74 31 95 51 19 18 41 33 49 33 8 0 11 4 8 10 -7 12 85 57
125 62 20 2 35 -4 45 -17 13 -15 15 -16 12 -3 -9 25 5 30 27 9 22 -19 76 -37
76 -24 0 4 -107 166 -237 360 -289 430 -301 448 -365 548 -28 44 -61 91 -73
105 -12 14 -43 59 -69 100 -90 141 -152 225 -166 225 -8 0 -60 -67 -115 -150
-55 -82 -130 -181 -167 -220 -64 -66 -69 -68 -81 -50 -15 22 -77 179 -77 194
0 5 -3 11 -7 13 -5 2 -18 23 -31 48 -33 65 -47 88 -65 108 -10 10 -17 23 -17
29 0 5 -9 18 -20 28 -11 10 -20 23 -20 29 0 14 -187 198 -250 247 -73 57 -160
111 -235 147 -38 18 -72 37 -75 41 -9 12 -215 72 -297 87 -45 8 -149 14 -249
14 -180 0 -300 -19 -448 -70 -63 -21 -228 -101 -253 -122 -17 -13 -45 -30 -83
-50 -14 -7 -30 -20 -37 -28 -6 -8 -36 -33 -67 -55 -30 -22 -57 -46 -58 -54 -2
-8 -73 56 -168 151 -93 93 -187 177 -215 193 -27 16 -58 35 -67 43 -10 9 -28
12 -45 9 -30 -6 -64 9 -126 54 -59 43 -69 35 -14 -12z m1605 -819 l2 -363 -55
-81 c-30 -45 -74 -101 -98 -126 l-42 -45 -403 3 c-375 2 -403 4 -400 20 3 16
35 17 415 20 400 2 413 3 423 22 11 20 7 20 -223 20 l-234 0 -154 149 -154
149 39 78 c44 86 128 196 199 262 61 55 203 148 261 169 l44 17 151 -149 151
-149 0 -214 c0 -214 0 -215 20 -197 19 17 20 31 20 395 0 207 3 380 7 384 25
24 28 -17 31 -364z m-78 208 l0 -152 -57 54 c-143 136 -203 195 -203 201 0 5
63 21 165 43 11 2 37 4 58 5 l37 1 0 -152z m305 126 c33 -8 61 -17 64 -20 3
-3 -52 -62 -122 -132 l-127 -127 0 154 0 154 63 -7 c35 -3 90 -13 122 -22z
m235 -92 c189 -115 301 -232 397 -414 l30 -57 -151 -150 -151 -151 -172 0
-172 0 -52 78 c-67 100 -97 132 -126 132 l-23 0 0 161 0 160 152 148 152 148
46 -20 c25 -11 56 -27 70 -35z m-1265 -647 l130 -124 -159 -1 -159 0 6 53 c6
63 38 197 46 197 3 0 65 -56 136 -125z m1729 60 c9 -36 19 -92 23 -125 l6 -60
-153 0 c-84 0 -150 3 -146 8 39 43 243 242 247 242 4 0 14 -29 23 -65z m34
-248 c3 -16 -16 -17 -335 -15 -313 3 -338 4 -341 21 -3 16 16 17 335 15 313
-3 338 -4 341 -21z m-1648 -62 c0 -6 -199 -199 -209 -203 -5 -1 -27 26 -50 61
-31 49 -41 73 -41 105 l0 42 150 0 c83 0 150 -2 150 -5z m420 -2 c0 -3 -7 -14
-16 -24 -8 -9 -29 -50 -45 -91 -48 -117 -107 -204 -126 -184 -4 3 3 15 15 26
26 24 25 22 10 55 -13 29 -45 40 -84 31 -35 -9 -25 -32 13 -28 42 4 62 -21 38
-48 -10 -11 -31 -20 -46 -20 -31 0 -69 -34 -69 -61 0 -32 20 -31 31 0 8 23 17
31 35 31 13 0 24 -3 24 -6 0 -3 -27 -38 -61 -77 -34 -39 -72 -88 -86 -109 -14
-21 -29 -38 -33 -38 -5 0 -27 30 -50 68 -24 37 -70 102 -103 145 l-60 79 129
129 129 129 177 0 c98 0 178 -3 178 -7z m977 -104 l112 -111 -38 -57 c-21 -31
-55 -86 -77 -123 -21 -37 -44 -68 -51 -68 -15 0 -126 157 -118 169 3 5 -3 12
-13 15 -10 4 -26 23 -36 43 -10 21 -30 53 -45 73 -15 19 -48 65 -75 103 l-47
67 138 0 138 0 112 -111z m243 74 c-1 -32 -10 -48 -53 -95 l-53 -57 -87 87
c-48 48 -90 90 -94 95 -3 4 60 7 140 7 l147 0 0 -37z"/>
<path d="M4481 3477 c-47 -15 -109 -80 -117 -124 -9 -48 1 -107 22 -137 24
-33 91 -66 134 -66 47 0 110 34 143 77 37 50 36 76 -2 39 -58 -55 -162 -42
-196 24 -33 64 -3 149 62 176 18 8 33 16 33 19 0 8 -43 4 -79 -8z"/>
<path d="M5270 3475 c0 -3 12 -16 27 -29 16 -14 24 -29 21 -38 -8 -19 -82 -32
-108 -18 -29 16 -89 -12 -90 -42 0 -13 23 -9 41 8 10 9 25 14 34 11 22 -9 19
-73 -5 -104 -24 -31 -25 -51 -4 -82 22 -31 39 -13 23 23 -10 22 -10 29 2 42
13 12 20 13 46 1 18 -7 42 -25 53 -40 18 -23 29 -28 58 -25 48 4 56 28 9 28
-19 0 -40 6 -46 13 -17 21 19 57 56 57 34 0 63 27 63 58 0 30 -18 28 -30 -3
-12 -32 -60 -36 -60 -6 0 11 -5 23 -11 26 -6 4 -8 22 -4 44 5 28 2 41 -15 59
-18 19 -60 31 -60 17z"/>
<path d="M2077 4021 c-53 -96 -74 -298 -42 -398 41 -128 56 -186 75 -284 21
-114 70 -250 103 -286 11 -13 29 -23 39 -23 12 0 19 -6 17 -17 -3 -30 1 -43
11 -43 15 0 12 68 -2 73 -10 3 -7 16 9 49 25 50 77 83 174 112 30 9 61 20 69
26 13 9 13 12 -2 21 -12 6 -18 22 -18 45 0 51 -37 131 -63 138 -12 3 -25 2
-30 -3 -8 -8 38 -117 54 -126 18 -12 10 -45 -11 -45 -15 0 -20 7 -20 28 0 38
-47 135 -62 129 -24 -8 -10 -102 21 -146 26 -36 27 -64 4 -59 -21 4 -52 56
-55 91 -2 22 -8 28 -38 32 -53 9 -59 15 -89 87 -38 90 -44 127 -26 161 13 26
13 33 -10 87 -14 32 -38 82 -55 110 -35 59 -35 61 -25 193 5 53 6 97 3 97 -3
0 -17 -22 -31 -49z"/>
<path d="M1026 1369 c-15 -9 -16 -13 -5 -21 11 -7 11 -11 2 -15 -24 -9 -13
-23 18 -23 17 0 28 -4 24 -10 -3 -5 -11 -7 -18 -5 -7 3 -19 0 -27 -5 -13 -9
-13 -11 0 -20 8 -5 24 -10 34 -10 11 0 16 -3 12 -7 -4 -4 -15 -8 -24 -8 -26 0
-20 -30 6 -33 12 -2 20 -7 17 -12 -3 -5 -12 -7 -20 -3 -9 3 -15 -1 -15 -11 0
-10 9 -16 23 -17 l22 0 -22 -9 c-13 -5 -23 -12 -23 -15 0 -3 10 -10 23 -16
l22 -10 -23 5 c-17 3 -22 0 -20 -12 2 -12 17 -16 68 -16 69 -1 72 1 56 52 -6
19 -4 22 18 22 36 0 41 -19 44 -182 2 -71 4 -77 25 -81 19 -4 18 -4 -5 -6 -32
-1 -40 -31 -8 -31 11 0 20 -4 20 -10 0 -5 -6 -7 -12 -5 -7 3 -20 0 -28 -5 -12
-8 -13 -12 -2 -19 11 -7 11 -9 -2 -14 -21 -8 -21 -98 -2 -182 18 -76 20 -326
3 -338 -9 -7 -9 -10 1 -14 18 -7 15 -23 -4 -16 -13 5 -15 -1 -12 -33 3 -35 6
-39 28 -36 25 2 61 2 110 -1 24 -2 25 -1 23 63 -4 171 -4 329 2 365 11 75 12
144 1 149 -7 3 -5 9 4 15 11 8 12 13 3 19 -6 4 -11 14 -10 22 1 8 -1 60 -5
115 -4 55 -4 129 0 165 6 56 10 65 28 68 34 5 48 -21 33 -61 -20 -57 -10 -67
69 -67 37 0 73 5 79 11 8 8 7 26 -5 66 -13 47 -13 60 -2 91 13 37 16 134 5
152 -8 12 -142 13 -149 1 -6 -10 -52 -20 -111 -24 -22 -2 -74 5 -115 15 -86
20 -127 22 -154 7z"/>
<path d="M4887 1357 c-15 -12 -28 -31 -28 -42 0 -11 2 -116 4 -233 2 -117 0
-215 -5 -218 -5 -3 -6 -10 -2 -15 12 -21 16 -479 4 -549 -17 -104 -16 -106 82
-105 l83 1 -1 44 c-1 25 -7 104 -13 176 -7 84 -9 158 -3 204 5 40 8 86 7 104
-1 17 3 34 9 39 8 5 6 10 -4 17 -13 9 -13 11 0 20 13 9 13 11 0 20 -13 8 -13
11 -1 19 8 5 10 14 5 22 -10 17 -12 99 -2 105 4 3 8 1 8 -4 0 -5 9 -19 20 -32
11 -13 20 -29 20 -37 0 -7 7 -13 15 -13 10 0 15 -7 13 -17 -2 -14 5 -19 33
-21 37 -3 64 17 71 52 3 17 39 66 49 66 2 0 5 -55 5 -122 1 -68 7 -181 14
-253 11 -117 10 -141 -7 -241 -23 -135 -18 -160 30 -149 17 4 41 6 52 5 11 -1
34 -3 50 -4 l30 -1 -3 70 c-3 62 -3 168 -1 565 1 63 -2 203 -6 310 -6 178 -9
197 -28 218 -23 24 -71 30 -90 10 -35 -37 -87 -107 -87 -117 0 -7 -7 -19 -15
-28 -9 -8 -19 -28 -22 -44 -3 -16 -9 -29 -14 -29 -5 0 -9 -9 -9 -19 0 -22 -16
-36 -24 -23 -3 5 -7 20 -10 35 -6 35 -74 160 -92 170 -8 4 -14 14 -14 21 0 18
-44 46 -72 46 -13 0 -36 -10 -51 -23z"/>
<path d="M3154 894 c-93 -14 -161 -48 -197 -99 -50 -72 -36 -203 27 -258 39
-35 99 -59 164 -67 78 -10 102 -29 102 -80 0 -36 -2 -38 -37 -45 -20 -4 -83
-3 -140 0 l-103 7 0 -26 c0 -14 5 -26 10 -26 15 0 12 -33 -5 -66 -8 -16 -11
-32 -6 -37 11 -11 201 3 201 14 0 5 15 9 33 9 52 0 137 56 137 90 0 9 5 21 12
28 17 17 12 144 -6 181 -9 16 -32 43 -52 59 -34 29 -57 36 -154 49 -25 3 -58
12 -73 20 -24 12 -28 19 -25 51 2 30 9 40 34 53 28 13 44 14 120 3 52 -7 98
-8 112 -3 25 10 30 37 7 45 -16 7 -15 38 3 56 18 18 14 48 -5 50 -47 4 -94 2
-159 -8z"/>
<path d="M3548 883 c-10 -2 -18 -9 -18 -14 0 -5 -9 -9 -19 -9 -24 0 -38 -20
-21 -30 7 -4 -9 -7 -35 -6 l-47 1 3 -110 c4 -181 2 -365 -6 -445 l-7 -76 84 1
83 1 -2 44 c-11 206 -11 415 0 422 9 6 9 8 0 8 -7 0 -13 5 -13 10 0 6 7 10 15
10 8 0 15 6 15 14 0 8 5 18 11 22 7 4 10 -5 9 -27 -4 -74 -1 -89 20 -89 20 0
28 -15 11 -22 -8 -3 -20 -105 -38 -314 -7 -81 0 -91 50 -73 27 10 38 9 64 -4
17 -9 33 -13 37 -10 5 6 29 9 111 14 11 1 35 -2 54 -6 l33 -8 -6 89 c-3 49 -9
163 -14 254 -9 161 -23 243 -42 255 -6 3 -10 13 -10 21 0 20 -23 43 -68 65
-45 23 -49 23 -93 0 -38 -20 -81 -18 -100 5 -11 14 -28 16 -61 7z m237 -198
c11 -49 -1 -362 -14 -384 -7 -11 -36 229 -33 272 0 9 -3 17 -9 17 -17 0 -9 18
11 23 14 4 20 14 20 34 0 30 10 76 16 71 1 -2 6 -17 9 -33z"/>
<path d="M4190 881 c-119 -14 -210 -115 -210 -233 0 -23 7 -93 16 -157 23
-163 61 -232 150 -280 43 -23 115 -28 161 -10 40 15 100 76 125 127 18 38 20
55 15 127 -3 46 -2 85 3 87 10 4 30 105 22 113 -3 3 -17 5 -31 5 -21 0 -26 5
-27 25 -2 22 2 25 30 25 26 1 28 2 13 11 -10 6 -25 8 -33 5 -10 -4 -14 3 -14
24 0 22 5 30 18 30 16 1 16 1 0 14 -10 7 -18 17 -18 23 0 25 -111 77 -155 71
-5 0 -35 -4 -65 -7z m103 -152 c7 -11 16 -19 22 -19 5 0 11 -28 11 -63 2 -64
6 -95 15 -112 13 -25 9 -90 -7 -121 -21 -38 -56 -54 -122 -54 -71 0 -92 26
-92 111 0 77 17 213 30 246 21 51 114 58 143 12z"/>
<path d="M5744 876 c-3 -8 0 -24 6 -36 8 -15 8 -29 -1 -54 -14 -38 -7 -66 17
-66 18 0 74 -37 74 -49 0 -4 -37 -7 -82 -7 -98 1 -141 -17 -205 -87 -70 -76
-80 -174 -28 -263 67 -115 214 -156 328 -92 33 19 50 22 77 17 19 -4 39 -4 44
1 9 9 3 212 -12 386 -11 120 -28 168 -79 216 -47 45 -127 64 -139 34z m30
-337 c62 -28 75 -160 22 -206 -39 -33 -100 -32 -122 3 -40 60 -23 177 29 202
29 14 41 14 71 1z"/>
<path d="M6228 877 c-20 -7 -50 -24 -66 -38 -39 -35 -66 -43 -82 -24 -7 8 -23
15 -36 15 -23 0 -29 -11 -26 -50 1 -8 2 -67 2 -130 1 -137 7 -180 26 -180 8 0
14 -7 14 -15 0 -8 -4 -15 -10 -15 -14 0 -12 -84 2 -98 10 -10 10 -15 -2 -22
-10 -7 -12 -12 -4 -17 13 -9 15 -44 3 -59 -5 -6 -13 -53 -19 -105 -16 -153
-24 -139 79 -139 l89 0 -5 63 c-3 34 -11 91 -17 127 -14 78 -8 116 20 112 120
-15 154 -14 213 8 71 26 140 94 171 166 27 62 26 150 -1 226 -51 138 -213 219
-351 175z m144 -156 l33 -29 0 -100 c0 -98 -1 -102 -29 -131 -24 -25 -38 -31
-72 -31 -51 0 -79 24 -95 82 -14 52 -9 178 7 178 7 0 15 8 18 18 7 19 47 39
83 41 13 1 37 -12 55 -28z"/>
<path d="M7330 870 c-19 -11 -39 -22 -45 -24 -6 -3 -4 -8 4 -14 11 -8 4 -10
-25 -10 -61 0 -66 -1 -57 -14 11 -19 11 -132 -1 -140 -6 -4 -5 -20 3 -46 10
-30 12 -76 7 -179 -3 -76 -7 -162 -9 -192 l-2 -55 80 0 80 0 -2 55 c-1 30 -5
120 -9 201 -4 102 -3 152 5 161 8 10 7 17 -2 26 -9 9 -9 14 3 21 10 7 11 10 3
10 -7 0 -13 5 -13 10 0 6 6 10 14 10 7 0 17 10 22 23 6 16 9 6 11 -40 3 -55 7
-63 23 -63 11 0 20 -4 20 -10 0 -5 -4 -10 -10 -10 -5 0 -10 -15 -10 -32 0 -18
-8 -104 -17 -191 -19 -180 -17 -190 42 -169 29 11 39 10 65 -3 17 -9 36 -12
43 -8 11 7 36 11 102 15 17 1 43 -2 58 -6 l29 -9 -5 104 c-21 432 -30 491 -80
546 -30 33 -100 58 -125 44 -52 -28 -68 -29 -108 -10 -48 23 -51 23 -94 -1z"/>
<path d="M8045 863 c3 -16 6 -39 5 -53 -6 -85 -6 -83 24 -91 28 -8 66 -36 66
-49 0 -3 -37 -6 -82 -6 -98 1 -141 -17 -205 -86 -91 -100 -76 -250 34 -335 79
-61 181 -68 269 -19 34 19 50 23 73 16 51 -14 54 -6 48 146 -9 211 -23 335
-41 379 -32 76 -98 125 -167 125 -29 0 -31 -2 -24 -27z m28 -325 c45 -23 52
-39 52 -109 0 -58 -4 -71 -24 -93 -19 -20 -34 -26 -68 -26 -58 0 -78 30 -78
118 0 59 2 66 33 93 35 32 52 35 85 17z"/>
<path d="M1582 871 c-14 -9 -11 -119 6 -191 11 -46 6 -168 -7 -203 -12 -30 -7
-91 10 -147 13 -39 61 -95 100 -115 29 -16 149 -30 149 -18 0 4 20 9 45 9 32
1 55 9 79 28 38 29 53 31 90 15 46 -21 55 -1 51 108 -2 52 -8 100 -13 106 -16
19 -14 206 3 291 21 108 7 140 -49 114 -18 -8 -33 -7 -56 1 -18 6 -37 8 -42 5
-7 -4 -8 -39 -4 -93 19 -258 19 -298 2 -322 -9 -13 -16 -40 -16 -61 0 -49 -34
-74 -98 -71 -47 2 -62 13 -88 73 -24 55 -39 248 -25 330 14 90 14 137 -1 143
-7 2 -26 0 -41 -4 -16 -4 -40 -4 -53 2 -30 11 -26 11 -42 0z"/>
<path d="M6635 869 c-4 -6 -1 -56 5 -112 9 -67 10 -149 6 -244 -5 -101 -4
-155 5 -181 19 -62 109 -142 145 -128 7 3 16 1 19 -3 6 -11 109 -6 161 8 22 6
50 20 62 31 24 23 41 25 76 9 46 -21 57 0 52 105 -2 51 -8 102 -14 113 -11 21
-11 225 0 268 18 67 18 113 2 129 -10 11 -23 14 -33 10 -16 -8 -55 -8 -96 -2
-18 3 -20 -2 -19 -67 0 -38 5 -127 9 -196 7 -110 6 -130 -9 -150 -9 -13 -16
-42 -16 -65 0 -34 -4 -43 -26 -55 -41 -22 -111 -15 -134 13 -49 61 -72 268
-45 412 20 105 13 123 -43 107 -20 -6 -45 -6 -64 0 -40 11 -35 11 -43 -2z"/>
<path d="M2318 854 c-20 -7 -50 -22 -66 -34 -24 -18 -33 -19 -57 -10 -50 19
-55 10 -55 -98 0 -59 4 -102 11 -109 8 -8 9 -53 5 -150 -14 -271 -15 -258 14
-255 30 4 78 4 105 0 18 -3 20 3 20 62 -1 36 -5 121 -9 190 -7 108 -6 130 8
157 9 18 16 41 16 53 0 11 11 32 25 45 20 20 34 25 78 25 47 0 57 -3 71 -25 9
-13 16 -35 16 -47 0 -38 13 -47 65 -47 28 0 61 -1 75 -3 23 -3 25 0 24 38 0
23 -8 57 -17 75 -23 49 -91 115 -129 127 -54 17 -160 20 -200 6z"/>
<path d="M2705 772 c10 -114 10 -373 0 -488 l-7 -81 87 -1 88 0 -9 92 c-11
123 -11 359 0 480 l9 99 -34 -8 c-40 -9 -61 -9 -108 -2 l-34 6 8 -97z"/>
<path d="M8781 832 c-28 -25 -43 -47 -44 -65 -1 -15 -5 -27 -9 -27 -4 0 -13
-19 -20 -42 -18 -65 -45 -85 -112 -85 -40 0 -56 4 -56 14 0 8 -7 16 -15 19 -8
4 -13 10 -10 14 3 5 1 11 -4 14 -5 3 -9 21 -9 40 0 49 -9 59 -46 51 -30 -6
-70 -7 -111 -2 -17 2 -20 -4 -20 -33 0 -27 4 -34 17 -32 9 1 19 -2 23 -8 3 -5
-3 -10 -14 -10 -38 0 -22 -20 17 -21 37 -1 37 -1 10 -12 -16 -6 -28 -13 -28
-16 0 -7 42 -58 72 -88 59 -59 242 -97 268 -55 8 12 13 14 17 4 4 -10 8 -10
19 -1 21 17 28 -12 19 -79 -4 -31 -8 -75 -9 -97 -1 -22 -7 -46 -13 -53 -7 -7
-16 -25 -19 -39 -4 -13 -18 -36 -32 -50 -22 -23 -30 -24 -80 -19 -31 3 -56 7
-57 9 -16 29 -36 87 -32 94 2 4 1 17 -3 28 -6 18 -16 20 -93 21 -99 1 -106 -5
-87 -76 15 -56 44 -106 83 -142 34 -31 87 -63 87 -52 0 4 7 1 15 -6 8 -6 19
-9 24 -6 5 4 12 2 16 -4 3 -5 38 -10 77 -10 58 0 69 3 64 15 -7 18 10 20 18 3
5 -10 7 -10 12 0 3 6 17 12 30 12 15 0 24 6 24 16 0 10 6 13 19 9 22 -7 79 48
87 85 3 14 9 34 12 45 3 11 5 24 4 29 -2 4 5 14 14 21 23 16 13 80 -17 108
-16 15 -18 21 -8 28 10 6 10 11 -2 25 -10 13 -11 18 -2 21 7 2 9 10 7 18 -3 8
-7 89 -9 182 -2 92 -5 184 -7 203 -4 50 -33 51 -87 2z"/>
</g>
</svg>
